<svg xmlns="http://www.w3.org/2000/svg" xmlns:xlink="http://www.w3.org/1999/xlink" version="1.1" viewBox="45.01 45.01 421.98 421.98">
<g id="surface1">
<path style=" stroke:none;fill-rule:nonzero;fill:rgb(0%,0%,0%);fill-opacity:1;" d="M 256 45.011719 C 139.585938 45.011719 45.011719 139.585938 45.011719 256 C 45.011719 372.414062 139.585938 466.988281 256 466.988281 C 372.414062 466.988281 466.988281 372.414062 466.988281 256 C 466.988281 139.585938 372.414062 45.011719 256 45.011719 Z M 256 63.359375 C 362.5 63.359375 448.640625 149.5 448.640625 256 C 448.640625 362.5 362.5 448.640625 256 448.640625 C 149.5 448.640625 63.359375 362.5 63.359375 256 C 63.359375 149.5 149.5 63.359375 256 63.359375 Z M 219.308594 127.574219 L 127.574219 210.132812 L 189.78125 210.132812 C 189.964844 236.25 209.835938 262.699219 244.710938 262.699219 C 248.015625 262.699219 251.6875 262.332031 255.355469 261.964844 C 253.703125 266.09375 251.96875 269.484375 251.96875 275.082031 C 251.96875 285.628906 257.289062 291.960938 261.964844 298.015625 C 247.015625 299.023438 219.210938 300.761719 198.757812 313.511719 C 179.21875 325.347656 173.261719 342.503906 173.261719 354.613281 C 173.261719 379.566406 196.378906 402.773438 244.355469 402.773438 C 301.230469 402.773438 331.410156 370.761719 331.410156 339.117188 C 331.410156 315.90625 318.191406 304.433594 303.605469 291.957031 L 291.78125 282.515625 C 288.109375 279.582031 283.054688 275.449219 283.054688 268.113281 C 283.054688 260.679688 288.113281 255.90625 292.425781 251.503906 C 306.277344 240.496094 320.214844 228.113281 320.214844 203.164062 C 320.214844 193.597656 317.976562 185.808594 314.785156 179.40625 L 347.734375 151.152344 L 347.734375 185.15625 C 342.273438 188.332031 338.558594 194.179688 338.558594 200.960938 L 338.558594 256 C 338.558594 266.128906 346.78125 274.347656 356.90625 274.347656 C 367.035156 274.347656 375.253906 266.128906 375.253906 256 L 375.253906 200.960938 C 375.253906 194.191406 371.539062 188.339844 366.078125 185.15625 L 366.078125 136.746094 C 366.078125 136.351562 365.902344 136.019531 365.847656 135.636719 L 375.253906 127.574219 Z M 249.300781 157.296875 C 276.820312 157.296875 291.046875 194.996094 291.046875 219.308594 C 291.046875 225.269531 290.308594 236 282.785156 243.796875 C 277.464844 249.210938 268.574219 253.242188 260.226562 253.242188 C 231.882812 253.242188 218.839844 215.820312 218.839844 193.253906 C 218.839844 184.542969 220.589844 175.464844 226.1875 168.496094 C 231.507812 161.613281 240.769531 157.296875 249.300781 157.296875 Z M 265.53125 307.457031 C 268.925781 307.457031 270.59375 307.464844 273.253906 307.832031 C 298.390625 325.996094 309.210938 335.078125 309.210938 352.230469 C 309.210938 373.054688 292.417969 388.65625 260.585938 388.65625 C 225.175781 388.65625 202.429688 371.496094 202.429688 347.554688 C 202.429688 323.613281 223.523438 315.621094 230.863281 312.867188 C 244.714844 308.097656 262.597656 307.457031 265.53125 307.457031 Z M 265.53125 307.457031 "/>
</g>
</svg>